# xmcd
#
# Track frame offsets:
# 150
# 14101
# 27874
# 46073
# 62034
# 79702
# 95816
# 112281
# 127768
# 142558
# 158523
# 176792
# 196099
# 214123
# 231416
# 245430
# 260690
# 279745
# 297299
# 315993
# 330596
#
# Disc length: 4492 seconds
#
# Revision: 0
# Processed by: cddbd v1.4PL0 Copyright (c) Steve Scherf et al.
# Submitted via: Audion 3.0.2 (http://www.panic.com/audion/)
#
DISCID=2b118a15
DTITLE=?«¡ - ?«¡
DYEAR=1900
DGENRE=
TTITLE0=2
TTITLE1=2
TTITLE2=2
TTITLE3=2
TTITLE4=2
TTITLE5=2
TTITLE6=2
TTITLE7=2
TTITLE8=2
TTITLE9=2
TTITLE10=2
TTITLE11=22
TTITLE12=2
TTITLE13=2
TTITLE14=2
TTITLE15=2
TTITLE16=2
TTITLE17=2
TTITLE18=2
TTITLE19=2
TTITLE20=2
EXTD=
EXTT0=
EXTT1=
EXTT2=
EXTT3=
EXTT4=
EXTT5=
EXTT6=
EXTT7=
EXTT8=
EXTT9=
EXTT10=
EXTT11=
EXTT12=
EXTT13=
EXTT14=
EXTT15=
EXTT16=
EXTT17=
EXTT18=
EXTT19=
EXTT20=
PLAYORDER=
